<?xml version="1.0" encoding="UTF-8"?>
<svg width="24px" height="24px" viewBox="0 0 24 24" version="1.1" xmlns="http://www.w3.org/2000/svg" xmlns:xlink="http://www.w3.org/1999/xlink">
    <!-- Generator: Sketch 51.2 (57519) - http://www.bohemiancoding.com/sketch -->
    <title>icon/car</title>
    <desc>Created with Sketch.</desc>
    <defs></defs>
    <g id="icon/car" stroke="none" stroke-width="1" fill="none" fill-rule="evenodd">
        <path d="M9.27272727,20.7272727 C7.76836364,20.7272727 6.54545455,19.5032727 6.54545455,18 C6.54545455,16.4967273 7.76836364,15.2727273 9.27272727,15.2727273 C10.7770909,15.2727273 12,16.4967273 12,18 C12,19.5032727 10.7770909,20.7272727 9.27272727,20.7272727 Z M24,13.1323636 C24,10.1181818 21.8541818,7.50218182 18.8989091,6.91090909 L12.1494545,5.56145455 L4.92,0 L0,0 L0,3.27272727 L3.80727273,3.27272727 L10.7596364,8.62036364 L18.2574545,10.1203636 C19.6887273,10.4061818 20.7272727,11.6738182 20.7272727,13.1323636 L20.7272727,16.3636364 L15.0414545,16.3636364 C14.328,13.8458182 12.0174545,12 9.27272727,12 C6.52690909,12 4.21745455,13.8458182 3.504,16.3636364 L0,16.3636364 L0,19.6363636 L3.504,19.6363636 C4.21745455,22.1541818 6.52690909,24 9.27272727,24 C12.0174545,24 14.328,22.1541818 15.0414545,19.6363636 L24,19.6363636 L24,13.1323636 Z" id="Fill-1" fill="#000000"></path>
    </g>
</svg>