<?xml version="1.0" encoding="UTF-8"?>
<svg width="24px" height="24px" viewBox="0 0 24 24" version="1.1" xmlns="http://www.w3.org/2000/svg" xmlns:xlink="http://www.w3.org/1999/xlink">
    <!-- Generator: Sketch 51.2 (57519) - http://www.bohemiancoding.com/sketch -->
    <title>icon/requirement</title>
    <desc>Created with Sketch.</desc>
    <defs></defs>
    <g id="icon/requirement" stroke="none" stroke-width="1" fill="none" fill-rule="evenodd">
        <path d="M12,0 L8.18181818,7.63527273 L0,8.18181818 L6,14.1818182 L3.81818182,22.9090909 L12,18.5454545 L20.1829091,22.9090909 L18,14.1818182 L24,8.18181818 L15.8181818,7.63527273 L12,0 Z M8.85709091,14.8952727 L9.26181818,13.2785455 L8.08254545,12.0992727 L6.67309091,10.6898182 L8.37818182,10.5752727 L10.0614545,10.4618182 L10.8163636,8.95309091 L12,6.58581818 L13.1836364,8.95309091 L13.9385455,10.4618182 L15.6218182,10.5752727 L17.328,10.6898182 L15.9174545,12.0992727 L14.7381818,13.2785455 L15.1429091,14.8952727 L15.7156364,17.1894545 L13.3865455,15.9458182 L12,15.2061818 L10.6134545,15.9458182 L8.28436364,17.1894545 L8.85709091,14.8952727 Z" id="Fill-1" fill="#000000"></path>
    </g>
</svg>